<svg width="10" height="12" viewBox="0 0 10 12" fill="none" xmlns="http://www.w3.org/2000/svg">
<path d="M1.70711 3.79289C1.31658 3.40237 0.683417 3.40237 0.292893 3.79289C-0.0976311 4.18342 -0.0976311 4.81658 0.292893 5.20711L1.70711 3.79289ZM5 8.5L4.29289 9.20711L5 9.91421L5.70711 9.20711L5 8.5ZM9.70711 5.20711C10.0976 4.81658 10.0976 4.18342 9.70711 3.79289C9.31658 3.40237 8.68342 3.40237 8.29289 3.79289L9.70711 5.20711ZM0.292893 5.20711L4.29289 9.20711L5.70711 7.79289L1.70711 3.79289L0.292893 5.20711ZM5.70711 9.20711L9.70711 5.20711L8.29289 3.79289L4.29289 7.79289L5.70711 9.20711Z" fill="#C2C2C8"/>
</svg>
