<svg width="24" height="24" viewBox="0 0 24 24" fill="none" xmlns="http://www.w3.org/2000/svg">
<path d="M18 22H7C5.89543 22 5 21.1046 5 20V4C5 2.89543 5.89543 2 7 2H12H13.7574C14.2878 2 14.7965 2.21071 15.1716 2.58579L19.4142 6.82843C19.7893 7.2035 20 7.71221 20 8.24264V12V20C20 21.1046 19.1046 22 18 22Z" stroke="#303184" stroke-width="2"/>
<rect x="8" y="7" width="3" height="2" rx="1" fill="#009DE0"/>
<rect x="8" y="11" width="9" height="2" rx="1" fill="#009DE0"/>
<rect x="8" y="15" width="5" height="2" rx="1" fill="#009DE0"/>
<rect x="15" y="17" width="2" height="2" rx="1" fill="#009DE0"/>
<path d="M14 2V7C14 7.55228 14.4477 8 15 8H20" stroke="#303184" stroke-width="2" stroke-linecap="round"/>
</svg>
