<svg width="30" height="31" viewBox="0 0 30 31" fill="none" xmlns="http://www.w3.org/2000/svg">
<g clip-path="url(#clip0_7123_31120)">
<path d="M30 15.7974C30 7.4618 23.2852 0.706055 15 0.706055C6.71484 0.706055 0 7.4618 0 15.7974C0 23.3313 5.48438 29.5742 12.6562 30.7061V20.1598H8.84766V15.7974H12.6562V12.4726C12.6562 8.69092 14.8945 6.60112 18.3223 6.60112C19.9629 6.60112 21.6797 6.89588 21.6797 6.89588V10.6098H19.7871C17.9238 10.6098 17.3438 11.774 17.3438 12.9678V15.7974H21.5039L20.8389 20.1598H17.3438V30.7061C24.5156 29.5742 30 23.3313 30 15.7974Z" fill="#1877F2"/>
</g>
<defs>
<clipPath id="clip0_7123_31120">
<rect width="30" height="30" fill="white" transform="translate(0 0.706055)"/>
</clipPath>
</defs>
</svg>
