<svg width="30" height="31" viewBox="0 0 30 31" fill="none" xmlns="http://www.w3.org/2000/svg">
<rect y="0.706055" width="30" height="30" rx="15" fill="url(#paint0_linear_7123_31123)"/>
<path d="M11.8755 15.2791C11.8755 13.5589 13.2742 12.164 15 12.164C16.7258 12.164 18.1252 13.5589 18.1252 15.2791C18.1252 16.9994 16.7258 18.3942 15 18.3942C13.2742 18.3942 11.8755 16.9994 11.8755 15.2791ZM10.186 15.2791C10.186 17.9293 12.3412 20.0775 15 20.0775C17.6587 20.0775 19.8139 17.9293 19.8139 15.2791C19.8139 12.629 17.6587 10.4808 15 10.4808C12.3412 10.4808 10.186 12.629 10.186 15.2791ZM18.8795 10.2906C18.8794 10.5123 18.9453 10.7292 19.0689 10.9136C19.1924 11.0981 19.3681 11.2419 19.5736 11.3268C19.7791 11.4118 20.0053 11.4341 20.2236 11.3909C20.4418 11.3477 20.6423 11.241 20.7997 11.0842C20.9571 10.9275 21.0643 10.7277 21.1078 10.5102C21.1513 10.2927 21.1291 10.0672 21.0441 9.8623C20.959 9.65737 20.8149 9.48218 20.6299 9.35889C20.445 9.2356 20.2275 9.16975 20.005 9.16966H20.0045C19.7063 9.1698 19.4203 9.28792 19.2093 9.49809C18.9984 9.70826 18.8798 9.99328 18.8795 10.2906ZM11.2125 22.8854C10.2985 22.8439 9.80167 22.6921 9.47152 22.5639C9.03382 22.3941 8.72152 22.1918 8.39317 21.865C8.06482 21.5381 7.86157 21.2271 7.69192 20.7909C7.56322 20.4619 7.41097 19.9666 7.36942 19.0555C7.32397 18.0705 7.3149 17.7747 7.3149 15.2792C7.3149 12.7838 7.32472 12.4887 7.36942 11.5029C7.41105 10.5918 7.56442 10.0975 7.69192 9.76756C7.86232 9.33128 8.06527 9.02 8.39317 8.69271C8.72107 8.36543 9.03307 8.16284 9.47152 7.99374C9.80152 7.86546 10.2985 7.7137 11.2125 7.67229C12.2007 7.62698 12.4975 7.61794 15 7.61794C17.5024 7.61794 17.7996 7.62773 18.7886 7.67229C19.7026 7.71378 20.1986 7.86665 20.5296 7.99374C20.9673 8.16284 21.2796 8.36588 21.6079 8.69271C21.9363 9.01955 22.1388 9.33128 22.3092 9.76756C22.4379 10.0965 22.5901 10.5918 22.6317 11.5029C22.6771 12.4887 22.6862 12.7838 22.6862 15.2792C22.6862 17.7747 22.6771 18.0697 22.6317 19.0555C22.5901 19.9666 22.4371 20.4618 22.3092 20.7909C22.1388 21.2271 21.9358 21.5384 21.6079 21.865C21.28 22.1915 20.9673 22.3941 20.5296 22.5639C20.1996 22.6922 19.7026 22.844 18.7886 22.8854C17.8004 22.9307 17.5036 22.9397 15 22.9397C12.4964 22.9397 12.2004 22.9307 11.2125 22.8854ZM11.1349 5.99116C10.1368 6.03646 9.45487 6.1942 8.8593 6.4252C8.2425 6.66375 7.72035 6.98378 7.19857 7.50304C6.6768 8.0223 6.35655 8.54357 6.11722 9.15837C5.88547 9.75239 5.72722 10.4318 5.68177 11.4266C5.63557 12.4229 5.625 12.7415 5.625 15.2791C5.625 17.8168 5.63557 18.1354 5.68177 19.1317C5.72722 20.1266 5.88547 20.8059 6.11722 21.3999C6.35655 22.0143 6.67687 22.5362 7.19857 23.0552C7.72027 23.5743 8.2425 23.8939 8.8593 24.1331C9.456 24.3641 10.1368 24.5218 11.1349 24.5671C12.135 24.6124 12.454 24.6237 15 24.6237C17.5459 24.6237 17.8655 24.6132 18.8651 24.5671C19.8632 24.5218 20.5447 24.3641 21.1407 24.1331C21.7571 23.8939 22.2796 23.5745 22.8014 23.0552C23.3232 22.536 23.6428 22.0143 23.8828 21.3999C24.1145 20.8059 24.2735 20.1265 24.3182 19.1317C24.3637 18.1346 24.3742 17.8168 24.3742 15.2791C24.3742 12.7415 24.3637 12.4229 24.3182 11.4266C24.2728 10.4317 24.1145 9.75201 23.8828 9.15837C23.6428 8.54395 23.3224 8.02312 22.8014 7.50304C22.2805 6.98296 21.7571 6.66375 21.1414 6.4252C20.5447 6.1942 19.8631 6.03572 18.8659 5.99116C17.8663 5.94586 17.5467 5.93457 15.0007 5.93457C12.4548 5.93457 12.135 5.94511 11.1349 5.99116Z" fill="white"/>
<defs>
<linearGradient id="paint0_linear_7123_31123" x1="3.4375" y1="25.7061" x2="26.5625" y2="5.70605" gradientUnits="userSpaceOnUse">
<stop stop-color="#FFAE4D"/>
<stop offset="0.494792" stop-color="#ED4B61"/>
<stop offset="0.973958" stop-color="#AA31BE"/>
</linearGradient>
</defs>
</svg>
