<svg width="147" height="30" viewBox="0 0 147 30" fill="none" xmlns="http://www.w3.org/2000/svg">
<path d="M92.6578 0H86.937C85.2467 0 83.6709 0.853965 82.748 2.27005L79.5253 7.21519L76.0605 12.5316L67.6461 25.443C66.3683 27.4037 67.7753 30 70.1156 30H73.1067H80.7706H86.1354H91.3143C93.3426 30 95.2336 28.9752 96.341 27.2759L104.942 14.0776C105.376 13.4124 104.899 12.5316 104.105 12.5316H97.5196H92.6967C92.3587 12.5316 92.0435 12.7024 91.8589 12.9857L89.2026 17.0616C88.7691 17.7268 89.2464 18.6076 90.0404 18.6076H93.5599L90.5901 23.1646H85.2253H77.5614L80.5311 18.6076L84.4908 12.5316L87.9556 7.21519H95.6195H100.984H109.415L113.109 1.54599C113.543 0.880802 113.065 0 112.271 0H105.686H100.322H92.6578Z" fill="#303184"/>
<path d="M30.8592 25.443L31.3365 24.7105C31.7701 24.0454 31.2927 23.1646 30.4988 23.1646H10.885L14.3498 17.8481H35.2669C35.605 17.8481 35.9201 17.6773 36.1047 17.3941L38.266 14.0776C38.6995 13.4124 38.2222 12.5316 37.4282 12.5316H17.8145L21.2792 7.21519H42.1964C42.5344 7.21519 42.8496 7.0444 43.0342 6.76118L46.4329 1.54599C46.8664 0.880802 46.3891 0 45.5951 0H25.9814H20.2606C18.5704 0 16.9945 0.853965 16.0717 2.27005L12.8489 7.21519L1.02257 25.362C-0.277939 27.3576 1.15402 30 3.53595 30H6.43034H27.3475C27.6855 30 28.0007 29.8292 28.1853 29.546L30.8592 25.443Z" fill="#303184"/>
<path d="M125.158 18.2278L136.992 12.5316L146.826 7.79779C146.933 7.74673 147 7.63939 147 7.52165C147 7.3524 146.863 7.21519 146.694 7.21519H120.915L118.385 0.194434C118.343 0.0777687 118.232 0 118.108 0C118.009 0 117.916 0.0502421 117.862 0.133556L113.247 7.21519L109.782 12.5316L98.8772 29.2643C98.6709 29.5808 98.8981 30 99.2759 30C99.3438 30 99.4109 29.9855 99.4727 29.9574L114.428 23.1646L127.687 29.9218C127.788 29.9732 127.899 30 128.012 30C128.5 30 128.845 29.5238 128.694 29.0602L125.158 18.2278Z" fill="#303184"/>
<path fill-rule="evenodd" clip-rule="evenodd" d="M31.7214 30L34.6912 25.443L36.176 23.1646L39.6408 17.8481L43.1055 12.5316L46.5703 7.21519L49.793 2.27005C50.7159 0.853966 52.2917 0 53.982 0H59.7028H71.9651H78.5501C79.3441 0 79.8214 0.880802 79.3879 1.54599L75.6933 7.21519L72.2285 12.5316L64.11 24.989C63.9255 25.2722 63.6103 25.443 63.2722 25.443H55.3838H49.8181C49.0217 25.443 48.5449 24.5575 48.9832 23.8926L51.6706 19.8166C51.8557 19.536 52.1693 19.3671 52.5055 19.3671H59.3435L63.7982 12.5316L67.2629 7.21519H55.0006L51.5359 12.5316L48.0711 17.8481L47.0812 19.3671L43.1215 25.443L41.927 27.2759C40.8196 28.9752 38.9286 30 36.9002 30H31.7214Z" fill="#303184"/>
</svg>
