<svg width="30" height="31" viewBox="0 0 30 31" fill="none" xmlns="http://www.w3.org/2000/svg">
<g clip-path="url(#clip0_7123_31131)">
<rect y="0.706055" width="30" height="30" rx="15" fill="#EE8208"/>
<path d="M14.999 8.73116C16.1775 8.73116 17.1361 9.68978 17.1361 10.8683C17.1361 12.0458 16.1773 13.0044 14.999 13.0044C13.8212 13.0044 12.8623 12.0458 12.8623 10.8683C12.8621 9.68953 13.8215 8.73116 14.999 8.73116ZM14.999 16.0281C17.8457 16.0281 20.1607 13.7138 20.1607 10.8683C20.1607 8.02133 17.846 5.70605 14.999 5.70605C12.1525 5.70605 9.83724 8.02158 9.83724 10.8683C9.83724 13.7138 12.1525 16.0281 14.999 16.0281ZM17.0872 20.2384C18.1491 19.9965 19.1624 19.5769 20.0844 18.9973C20.4238 18.7838 20.6645 18.4441 20.7535 18.0531C20.8425 17.6621 20.7726 17.2518 20.559 16.9123C20.4534 16.7441 20.3157 16.5983 20.1537 16.4834C19.9917 16.3684 19.8086 16.2865 19.6149 16.2424C19.4213 16.1982 19.2208 16.1927 19.025 16.2261C18.8292 16.2595 18.6419 16.3311 18.4738 16.437C16.3591 17.7664 13.6374 17.7655 11.5245 16.437C11.3564 16.3311 11.1691 16.2594 10.9733 16.226C10.7775 16.1926 10.5771 16.1981 10.3834 16.2423C10.1897 16.2864 10.0067 16.3683 9.84471 16.4833C9.68274 16.5983 9.54503 16.7441 9.43946 16.9123C9.22585 17.2517 9.15577 17.662 9.24464 18.053C9.33351 18.444 9.57404 18.7837 9.91334 18.9973C10.8353 19.5767 11.8484 19.9963 12.91 20.2384L10.0245 23.1244C9.74096 23.408 9.58169 23.7927 9.58176 24.1938C9.58183 24.5949 9.74123 24.9795 10.0249 25.2631C10.3086 25.5467 10.6933 25.7059 11.0943 25.7059C11.4954 25.7058 11.8801 25.5464 12.1636 25.2627L14.9985 22.4274L17.8351 25.263C17.9753 25.4034 18.1419 25.5149 18.3253 25.5909C18.5086 25.6669 18.7052 25.7061 18.9037 25.7061C19.1021 25.7061 19.2987 25.6669 19.482 25.5909C19.6654 25.5149 19.832 25.4034 19.9722 25.263C20.1129 25.1227 20.2245 24.9561 20.3007 24.7727C20.3768 24.5892 20.416 24.3925 20.416 24.1939C20.416 23.9953 20.3768 23.7986 20.3007 23.6152C20.2245 23.4317 20.1129 23.2651 19.9722 23.1249L17.0872 20.2384Z" fill="white"/>
</g>
<defs>
<clipPath id="clip0_7123_31131">
<rect width="30" height="30" fill="white" transform="translate(0 0.706055)"/>
</clipPath>
</defs>
</svg>
