<svg width="30" height="31" viewBox="0 0 30 31" fill="none" xmlns="http://www.w3.org/2000/svg">
<g clip-path="url(#clip0_7123_31113)">
<rect y="0.706055" width="30" height="30" rx="15" fill="#FF0000"/>
<path fill-rule="evenodd" clip-rule="evenodd" d="M22.3362 9.54316C23.1393 9.75939 23.7726 10.3926 23.9888 11.1958C24.3904 12.663 24.3749 15.7211 24.3749 15.7211C24.3749 15.7211 24.3749 18.7637 23.9888 20.2309C23.7726 21.0341 23.1393 21.6673 22.3362 21.8835C20.869 22.2696 15 22.2696 15 22.2696C15 22.2696 9.1464 22.2696 7.66371 21.8681C6.86058 21.6518 6.22735 21.0186 6.01112 20.2155C5.625 18.7637 5.625 15.7056 5.625 15.7056C5.625 15.7056 5.625 12.663 6.01112 11.1958C6.22735 10.3926 6.87602 9.74395 7.66371 9.52772C9.13096 9.1416 15 9.1416 15 9.1416C15 9.1416 20.869 9.1416 22.3362 9.54316ZM18.0117 15.7056L13.1312 18.5166V12.8947L18.0117 15.7056Z" fill="white"/>
</g>
<defs>
<clipPath id="clip0_7123_31113">
<rect width="30" height="30" fill="white" transform="translate(0 0.706055)"/>
</clipPath>
</defs>
</svg>
